HIERARCHY
ROOT Hips
{
  OFFSET 3.13124 94.3669 -3.18751
  CHANNELS  6 Xposition Yposition Zposition Zrotation Xrotation Yrotation
  JOINT LeftUpLeg
  {
    OFFSET 8.64259 1.95398 -2.38835
    CHANNELS 3 Zrotation Xrotation Yrotation
    JOINT LeftLeg
    {
      OFFSET 43.7702 0 0
      CHANNELS 3 Zrotation Xrotation Yrotation
      JOINT LeftFoot
      {
        OFFSET 40.6238 0 0
        CHANNELS 3 Zrotation Xrotation Yrotation
        JOINT LeftToeBase
        {
          OFFSET 12.7242 0 0
          CHANNELS 3 Zrotation Xrotation Yrotation
          End Site
          {
            OFFSET 0 0 0
          }
        }
      }
    }
  }
  JOINT RightUpLeg
  {
    OFFSET -8.2249 1.95398 -2.59336
    CHANNELS 3 Zrotation Xrotation Yrotation
    JOINT RightLeg
    {
      OFFSET 43.5653 0 0
      CHANNELS 3 Zrotation Xrotation Yrotation
      JOINT RightFoot
      {
        OFFSET 40.6238 0 0
        CHANNELS 3 Zrotation Xrotation Yrotation
        JOINT RightToeBase
        {
          OFFSET 12.7242 0 0
          CHANNELS 3 Zrotation Xrotation Yrotation
          End Site
          {
            OFFSET 0 0 0
          }
        }
      }
    }
  }
  JOINT Spine
  {
    OFFSET 0.165834 0.87714 6.61349
    CHANNELS 3 Zrotation Xrotation Yrotation
    JOINT Spine1
    {
      OFFSET 7.38962 1.71661e-005 0
      CHANNELS 3 Zrotation Xrotation Yrotation
      JOINT Spine2
      {
        OFFSET 11.9445 1.14441e-005 0
        CHANNELS 3 Zrotation Xrotation Yrotation
        JOINT Spine3
        {
          OFFSET 14.7254 4.19617e-005 0
          CHANNELS 3 Zrotation Xrotation Yrotation
          JOINT Spine4
          {
            OFFSET 10.9679 0 0
            CHANNELS 3 Zrotation Xrotation Yrotation
            JOINT RightShoulder
            {
              OFFSET 2.46616 -1.6653 3.69651
              CHANNELS 3 Zrotation Xrotation Yrotation
              JOINT RightArm
              {
                OFFSET 13.0012 0 0
                CHANNELS 3 Zrotation Xrotation Yrotation
                JOINT RightForeArm
                {
                  OFFSET 28.7848 1.52588e-005 0
                  CHANNELS 3 Zrotation Xrotation Yrotation
                  JOINT RightHand
                  {
                    OFFSET 26.5688 1.52588e-005 0
                    CHANNELS 3 Zrotation Xrotation Yrotation
                    End Site
                    {
                      OFFSET 0 0 0
                    }
                  }
                }
              }
            }
            JOINT LeftShoulder
            {
              OFFSET 2.38034 -1.29275 -3.75231
              CHANNELS 3 Zrotation Xrotation Yrotation
              JOINT LeftArm
              {
                OFFSET 16.3182 6.10352e-005 0
                CHANNELS 3 Zrotation Xrotation Yrotation
                JOINT LeftForeArm
                {
                  OFFSET 27.0901 0 0
                  CHANNELS 3 Zrotation Xrotation Yrotation
                  JOINT LeftHand
                  {
                    OFFSET 24.5451 1.52588e-005 0
                    CHANNELS 3 Zrotation Xrotation Yrotation
                    End Site
                    {
                      OFFSET 0 0 0
                    }
                  }
                }
              }
            }
            JOINT Neck
            {
              OFFSET 5.0226 -0.0266342 0
              CHANNELS 3 Zrotation Xrotation Yrotation
              JOINT Head
              {
                OFFSET 6.69363 2.86102e-005 0
                CHANNELS 3 Zrotation Xrotation Yrotation
                End Site
                {
                  OFFSET 0 0 0
                }
              }
            }
          }
        }
      }
    }
  }
}
MOTION
Frames:	7
Frame Time:	0.0333333
1.47426 98.0352 -14.5597 -111.809 -89.9994 -111.754 -172.408 2.73949 93.2961 -8.48379 7.62205 -0.451207 63.142 2.19486 1.17343 28.7808 7.42236e-006 8.08035e-006 178.51 1.9201 87.4073 -7.51276 -1.41881 -0.0893277 62.6857 -1.30009 -0.660004 28.7808 1.3476e-005 3.02633e-005 0.00442302 6.34021 -90.0559 14.1935 -0.000876592 -0.00941959 2.52255 -0.00132157 -0.00975355 -20.0126 0.009345 -0.00668552 4.47202e-005 0.00933604 -0.00667556 100.859 -18.3093 -85.4183 3.94217 41.5371 -19.4325 -4.42229 0.201042 -3.52192 -5.37983 -0.319993 -0.0162392 -79.1083 -21.0336 94.0172 10.9216 -37.5166 -6.54418 2.44801 37.753 -7.99299 -0.661536 -0.00496917 1.35616 1.74956 0.00174653 0.000172505 -7.40445 0.00529195 0.00475953 
1.48792 98.0342 -14.5764 -98.2679 -89.9637 -98.2196 -172.415 2.73719 93.2782 -8.48904 7.62932 -0.451871 63.1562 2.21425 1.18447 28.7808 7.42236e-006 8.08035e-006 178.508 1.99978 87.3926 -7.65825 -1.42714 -0.089328 62.7612 -1.33597 -0.682149 28.7808 1.3476e-005 3.02633e-005 0.00426832 6.34064 -90.0525 14.1926 -0.000876592 -0.00941959 2.52166 -0.00132157 -0.00975355 -20.0135 0.009345 -0.00668552 -0.000846195 0.00933604 -0.00667556 100.791 -18.3628 -85.4752 3.92937 41.5796 -19.4716 -4.44409 0.201042 -3.52192 -5.37983 -0.319993 -0.0162392 -79.1899 -21.12 93.9459 11.0191 -37.4897 -6.44169 2.38861 37.3959 -8.06114 -0.837385 -0.01075 1.58585 1.68623 0.0270608 0.00611403 -7.29453 0.00529195 0.0746177 
1.48802 98.0313 -14.6021 -124.862 -89.9445 -124.831 -172.408 2.76563 93.2668 -8.57976 7.63119 -0.461669 63.1823 2.2288 1.19145 28.7808 7.42236e-006 8.08035e-006 178.516 2.17408 87.3715 -8.04361 -1.46879 -0.0893296 62.9524 -1.33466 -0.684571 28.7808 1.3476e-005 3.02633e-005 0.00619223 6.35276 -90.0358 14.1684 -0.000876592 -0.00941959 2.49742 -0.00132157 -0.00975355 -20.0377 0.009345 -0.00668552 -0.025096 0.00933604 -0.00667556 100.799 -18.4862 -85.5414 3.8285 41.6438 -19.4558 -4.46247 0.201042 -3.52199 -5.37983 -0.319993 -0.0162392 -79.2118 -21.3026 93.8131 11.1662 -37.5584 -6.38456 2.6114 37.6177 -8.29029 -1.4015 -0.0359658 2.05622 1.67891 0.0155726 0.0538566 -7.09972 0.00529195 0.0552647 
1.49906 98.0285 -14.6199 -125.056 -89.9248 -125.021 -172.412 2.7458 93.2649 -8.53461 7.59953 -0.460449 63.1508 2.20811 1.18011 28.7808 7.42236e-006 8.08035e-006 178.506 2.09603 87.3686 -7.86627 -1.49969 -0.0894118 62.8461 -1.28519 -0.654511 28.7808 1.3476e-005 3.02633e-005 0.00820766 6.36101 -90.042 14.1519 -0.000876592 -0.00941959 2.48093 -0.00132157 -0.00975355 -20.0542 0.0091908 -0.00668552 -0.0415785 0.00918213 -0.00667556 100.797 -18.513 -85.5778 3.86591 41.6587 -19.5067 -4.49184 0.201042 -3.5238 -5.37983 -0.319993 -0.0162392 -79.2262 -21.289 93.7504 11.0352 -37.5464 -6.41502 2.60513 37.6682 -8.19856 -1.24062 -0.0294512 1.80685 1.78228 0.0132617 0.023736 -7.12037 0.0052979 0.107828 
1.49813 98.0311 -14.65 -105.38 -89.9347 -105.341 -172.417 2.80741 93.2624 -8.57156 7.64032 -0.454207 63.1393 2.2074 1.17893 28.7808 7.42236e-006 8.08035e-006 178.516 2.21625 87.3726 -8.02351 -1.50772 -0.0904792 62.8915 -1.33932 -0.686829 28.7808 1.3476e-005 3.02633e-005 0.00506073 6.36505 -90.039 14.1438 -0.000876592 -0.00941959 2.47282 -0.00132157 -0.00975355 -20.0623 0.00570132 -0.00668552 -0.0496891 0.00569754 -0.00667556 100.762 -18.561 -85.6381 3.85768 41.6466 -19.5257 -4.46242 0.201039 -3.53431 -5.37983 -0.319993 -0.0162392 -79.2452 -21.4009 93.735 11.0417 -37.5238 -6.43098 2.58122 37.4142 -8.22241 -1.50207 -0.0433416 1.83688 1.87187 0.0210446 0.0851484 -7.09028 0.00422065 0.0631879 
1.50419 98.0337 -14.6657 -101.892 -89.902 -101.848 -172.418 2.78212 93.261 -8.51446 7.60414 -0.454747 63.1225 2.21011 1.181 28.7808 7.42236e-006 8.08035e-006 178.506 2.11586 87.3732 -7.79113 -1.54337 -0.0913483 62.7881 -1.33548 -0.68297 28.7808 1.3476e-005 3.02633e-005 0.00827743 6.37515 -90.0473 14.1236 -0.000876592 -0.00948961 2.45267 -0.00132157 -0.00979878 -20.0825 0.00240427 -0.00692313 -0.0698351 0.00240532 -0.00691379 100.77 -18.5758 -85.6263 3.92806 41.628 -19.6115 -4.47877 0.201044 -3.51019 -5.37983 -0.319993 -0.0162392 -79.2178 -21.4927 93.7942 10.9386 -37.513 -6.58367 2.62129 37.309 -8.30492 -1.7344 -0.0551151 2.02637 2.06098 0.0127439 0.161877 -7.1714 -0.0132248 0.00186937 
1.49977 98.0375 -14.6884 -94.302 -89.9114 -94.2404 -172.401 2.8232 93.2858 -8.53247 7.6519 -0.468548 63.1165 2.24202 1.19909 28.7808 7.42236e-006 8.08035e-006 178.518 2.13088 87.3928 -7.77058 -1.52072 -0.0923457 62.764 -1.29877 -0.661513 28.7808 1.3476e-005 3.02633e-005 0.0041381 6.37575 -90.0455 14.1224 -0.000191488 -0.00978144 2.45147 -0.000605241 -0.0097506 -20.0837 0.00240325 -0.00954704 -0.071043 0.0024085 -0.00954728 100.706 -18.6565 -85.7674 3.87274 41.6658 -19.5328 -4.46062 0.20104 -3.52948 -5.37983 -0.319993 -0.0162392 -79.2439 -21.5629 93.7517 10.9606 -37.5496 -6.61356 2.62646 37.4365 -8.28143 -1.61659 -0.0577133 2.06422 1.99671 0.00506145 0.112884 -7.02012 -0.0133002 0.00573376 
